<svg width="800" height="360" viewBox="0 0 800 360" xmlns="http://www.w3.org/2000/svg">
  <defs>
    <style>
      @keyframes fadeSlide { from { opacity: 0; transform: translateX(-8px); } to { opacity: 1; transform: translateX(0); } }
      .r1 { animation: fadeSlide 0.5s 0.05s ease both; }
      .r2 { animation: fadeSlide 0.5s 0.12s ease both; }
      .r3 { animation: fadeSlide 0.5s 0.19s ease both; }
      .r4 { animation: fadeSlide 0.5s 0.26s ease both; }
      .r5 { animation: fadeSlide 0.5s 0.33s ease both; }
      .r6 { animation: fadeSlide 0.5s 0.40s ease both; }
    </style>
  </defs>

  <!-- Background -->
  <rect width="800" height="360" rx="18" fill="#0f0d0f"/>
  <rect width="800" height="360" rx="18" fill="none" stroke="#2a1a20" stroke-width="1"/>

  <!-- Header -->
  <text x="40" y="30" font-family="-apple-system, SF Pro Display, Helvetica Neue, sans-serif" font-size="11" fill="#6b3a48" letter-spacing="3" font-weight="500">BLOOM · PROJECTS BOARD</text>

  <!-- Column headers -->
  <rect x="32" y="40" width="736" height="0.5" fill="#1e1218"/>
  <text x="56" y="60" font-family="-apple-system, SF Pro Display, Helvetica Neue, sans-serif" font-size="10" fill="#3a1a22" letter-spacing="2">PROJECT</text>
  <text x="540" y="60" font-family="-apple-system, SF Pro Display, Helvetica Neue, sans-serif" font-size="10" fill="#3a1a22" letter-spacing="2" text-anchor="middle">STACK</text>
  <text x="730" y="60" font-family="-apple-system, SF Pro Display, Helvetica Neue, sans-serif" font-size="10" fill="#3a1a22" letter-spacing="2" text-anchor="end">STATUS</text>
  <rect x="32" y="68" width="736" height="0.5" fill="#1e1218"/>

  <!-- Row 1 -->
  <g class="r1">
    <rect x="32" y="69" width="736" height="44" fill="#0f0d0f"/>
    <rect x="32" y="69" width="2" height="44" rx="1" fill="#c9728a"/>
    <text x="56" y="87" font-family="-apple-system, SF Pro Display, Helvetica Neue, sans-serif" font-size="13" fill="#c8b0b8" font-weight="500">Bloom Core</text>
    <text x="56" y="103" font-family="-apple-system, SF Pro Display, Helvetica Neue, sans-serif" font-size="11" fill="#4a2a32">main toolkit &amp; scripts</text>
    <rect x="470" y="78" width="54" height="18" rx="5" fill="#1e1218"/>
    <text x="497" y="91" font-family="-apple-system, SF Pro Display, Helvetica Neue, sans-serif" font-size="10" fill="#7a4a58" text-anchor="middle">Python</text>
    <rect x="530" y="78" width="44" height="18" rx="5" fill="#1e1218"/>
    <text x="552" y="91" font-family="-apple-system, SF Pro Display, Helvetica Neue, sans-serif" font-size="10" fill="#7a4a58" text-anchor="middle">Shell</text>
    <rect x="640" y="78" width="56" height="18" rx="9" fill="#1e1818"/>
    <circle cx="651" cy="87" r="3" fill="#c9728a"/>
    <text x="720" y="91" font-family="-apple-system, SF Pro Display, Helvetica Neue, sans-serif" font-size="10" fill="#c9728a" text-anchor="end" letter-spacing="1">ACTIVE</text>
    <rect x="32" y="113" width="736" height="0.5" fill="#1a1018"/>
  </g>

  <!-- Row 2 -->
  <g class="r2">
    <rect x="32" y="114" width="736" height="44" fill="#0f0d0f"/>
    <rect x="32" y="114" width="2" height="44" rx="1" fill="#c9728a"/>
    <text x="56" y="132" font-family="-apple-system, SF Pro Display, Helvetica Neue, sans-serif" font-size="13" fill="#c8b0b8" font-weight="500">Bot Suite</text>
    <text x="56" y="148" font-family="-apple-system, SF Pro Display, Helvetica Neue, sans-serif" font-size="11" fill="#4a2a32">multi-platform bots</text>
    <rect x="470" y="123" width="54" height="18" rx="5" fill="#1e1218"/>
    <text x="497" y="136" font-family="-apple-system, SF Pro Display, Helvetica Neue, sans-serif" font-size="10" fill="#7a4a58" text-anchor="middle">Python</text>
    <rect x="530" y="123" width="54" height="18" rx="5" fill="#1e1218"/>
    <text x="557" y="136" font-family="-apple-system, SF Pro Display, Helvetica Neue, sans-serif" font-size="10" fill="#7a4a58" text-anchor="middle">Node.js</text>
    <circle cx="651" cy="132" r="3" fill="#c9728a"/>
    <text x="720" y="136" font-family="-apple-system, SF Pro Display, Helvetica Neue, sans-serif" font-size="10" fill="#c9728a" text-anchor="end" letter-spacing="1">ACTIVE</text>
    <rect x="32" y="158" width="736" height="0.5" fill="#1a1018"/>
  </g>

  <!-- Row 3 -->
  <g class="r3">
    <rect x="32" y="159" width="736" height="44" fill="#0f0d0f"/>
    <rect x="32" y="159" width="2" height="44" rx="1" fill="#c9728a"/>
    <text x="56" y="177" font-family="-apple-system, SF Pro Display, Helvetica Neue, sans-serif" font-size="13" fill="#c8b0b8" font-weight="500">Discord Utils</text>
    <text x="56" y="193" font-family="-apple-system, SF Pro Display, Helvetica Neue, sans-serif" font-size="11" fill="#4a2a32">quest bypass &amp; tools</text>
    <rect x="470" y="168" width="80" height="18" rx="5" fill="#1e1218"/>
    <text x="510" y="181" font-family="-apple-system, SF Pro Display, Helvetica Neue, sans-serif" font-size="10" fill="#7a4a58" text-anchor="middle">TypeScript</text>
    <circle cx="651" cy="177" r="3" fill="#c9728a"/>
    <text x="720" y="181" font-family="-apple-system, SF Pro Display, Helvetica Neue, sans-serif" font-size="10" fill="#c9728a" text-anchor="end" letter-spacing="1">ACTIVE</text>
    <rect x="32" y="203" width="736" height="0.5" fill="#1a1018"/>
  </g>

  <!-- Row 4 -->
  <g class="r4">
    <rect x="32" y="204" width="736" height="44" fill="#0f0d0f"/>
    <rect x="32" y="204" width="2" height="44" rx="1" fill="#7a4a58"/>
    <text x="56" y="222" font-family="-apple-system, SF Pro Display, Helvetica Neue, sans-serif" font-size="13" fill="#c8b0b8" font-weight="500">Sys Tools</text>
    <text x="56" y="238" font-family="-apple-system, SF Pro Display, Helvetica Neue, sans-serif" font-size="11" fill="#4a2a32">low-level utilities</text>
    <rect x="470" y="213" width="38" height="18" rx="5" fill="#1e1218"/>
    <text x="489" y="226" font-family="-apple-system, SF Pro Display, Helvetica Neue, sans-serif" font-size="10" fill="#7a4a58" text-anchor="middle">C++</text>
    <rect x="514" y="213" width="42" height="18" rx="5" fill="#1e1218"/>
    <text x="535" y="226" font-family="-apple-system, SF Pro Display, Helvetica Neue, sans-serif" font-size="10" fill="#7a4a58" text-anchor="middle">Rust</text>
    <circle cx="651" cy="222" r="3" fill="#7a5a30"/>
    <text x="720" y="226" font-family="-apple-system, SF Pro Display, Helvetica Neue, sans-serif" font-size="10" fill="#9a7a50" text-anchor="end" letter-spacing="1">WIP</text>
    <rect x="32" y="248" width="736" height="0.5" fill="#1a1018"/>
  </g>

  <!-- Row 5 -->
  <g class="r5">
    <rect x="32" y="249" width="736" height="44" fill="#0f0d0f"/>
    <rect x="32" y="249" width="2" height="44" rx="1" fill="#7a4a58"/>
    <text x="56" y="267" font-family="-apple-system, SF Pro Display, Helvetica Neue, sans-serif" font-size="13" fill="#c8b0b8" font-weight="500">Desktop Apps</text>
    <text x="56" y="283" font-family="-apple-system, SF Pro Display, Helvetica Neue, sans-serif" font-size="11" fill="#4a2a32">cross-platform apps</text>
    <rect x="462" y="258" width="56" height="18" rx="5" fill="#1e1218"/>
    <text x="490" y="271" font-family="-apple-system, SF Pro Display, Helvetica Neue, sans-serif" font-size="10" fill="#7a4a58" text-anchor="middle">Electron</text>
    <rect x="524" y="258" width="28" height="18" rx="5" fill="#1e1218"/>
    <text x="538" y="271" font-family="-apple-system, SF Pro Display, Helvetica Neue, sans-serif" font-size="10" fill="#7a4a58" text-anchor="middle">TS</text>
    <circle cx="651" cy="267" r="3" fill="#7a5a30"/>
    <text x="720" y="271" font-family="-apple-system, SF Pro Display, Helvetica Neue, sans-serif" font-size="10" fill="#9a7a50" text-anchor="end" letter-spacing="1">WIP</text>
    <rect x="32" y="293" width="736" height="0.5" fill="#1a1018"/>
  </g>

  <!-- Row 6 -->
  <g class="r6">
    <rect x="32" y="294" width="736" height="44" fill="#0f0d0f"/>
    <rect x="32" y="294" width="2" height="44" rx="1" fill="#2a1a20"/>
    <text x="56" y="312" font-family="-apple-system, SF Pro Display, Helvetica Neue, sans-serif" font-size="13" fill="#6a5058" font-weight="500">Web Tools</text>
    <text x="56" y="328" font-family="-apple-system, SF Pro Display, Helvetica Neue, sans-serif" font-size="11" fill="#3a1a22">browser extensions &amp; web</text>
    <rect x="462" y="303" width="46" height="18" rx="5" fill="#1a1218"/>
    <text x="485" y="316" font-family="-apple-system, SF Pro Display, Helvetica Neue, sans-serif" font-size="10" fill="#4a2a38" text-anchor="middle">React</text>
    <rect x="514" y="303" width="28" height="18" rx="5" fill="#1a1218"/>
    <text x="528" y="316" font-family="-apple-system, SF Pro Display, Helvetica Neue, sans-serif" font-size="10" fill="#4a2a38" text-anchor="middle">TS</text>
    <circle cx="651" cy="312" r="3" fill="#2a1a28"/>
    <text x="720" y="316" font-family="-apple-system, SF Pro Display, Helvetica Neue, sans-serif" font-size="10" fill="#4a3040" text-anchor="end" letter-spacing="1">PLANNED</text>
    <rect x="32" y="338" width="736" height="0.5" fill="#1a1018"/>
  </g>
</svg>
